<?xml version="1.0" standalone="no"?>
<!DOCTYPE svg PUBLIC "-//W3C//DTD SVG 20010904//EN"
 "http://www.w3.org/TR/2001/REC-SVG-20010904/DTD/svg10.dtd">
<svg version="1.0" xmlns="http://www.w3.org/2000/svg"
 width="150px" height="150px" viewBox="0 0 400.000000 400.000000"
 preserveAspectRatio="xMidYMid meet">

<g transform="translate(0.000000,400.000000) scale(0.100000,-0.100000)"
fill="#000000" stroke="none">
<path d="M1910 3159 c-204 -35 -369 -176 -438 -373 -20 -58 -25 -90 -25 -176
0 -159 40 -261 149 -379 67 -73 131 -115 226 -149 61 -21 90 -25 178 -25 160
0 269 43 383 152 259 246 221 667 -78 866 -109 72 -269 106 -395 84z"/>
<path d="M1890 1870 c-252 -27 -477 -131 -660 -306 -129 -124 -210 -245 -275
-412 -56 -145 -42 -231 47 -289 l42 -28 956 0 956 0 42 28 c89 58 103 144 47
289 -63 163 -143 283 -267 404 -94 92 -170 146 -277 199 -192 96 -410 136
-611 115z"/>
</g>
</svg>
